<svg viewBox="0 0 55 37"  xmlns="http://www.w3.org/2000/svg">
<path fill-rule="evenodd" clip-rule="evenodd" d="M33.9562 26.7589H53.114C53.752 26.7589 54.2713 27.3025 54.2713 27.9707V30.8334V31.8194V35.3309C54.2713 35.7877 53.9181 36.1577 53.4822 36.1577C53.0462 36.1577 52.693 35.7877 52.693 35.3309V32.6462H44.2207C43.7847 32.6462 43.4315 32.2761 43.4315 31.8194C43.4315 31.3626 43.7847 30.9926 44.2207 30.9926H52.693V30.8334V28.4126H33.9562V30.9926H41.0078C41.4437 30.9926 41.7969 31.3626 41.7969 31.8194C41.7969 32.2761 41.4437 32.6462 41.0078 32.6462H33.9562V34.1604C33.9562 34.9934 33.3075 35.671 32.5099 35.671H17.1786C7.92737 35.671 0.400879 27.8019 0.400879 18.1295C0.400879 8.45702 7.92737 0.587891 17.1786 0.587891C24.5686 0.587891 30.8575 5.60942 33.0889 12.5603H35.9418C36.6284 12.5603 37.1868 13.0863 37.3312 13.8695L38.4114 19.748C38.5034 20.243 38.4092 20.7012 38.1454 21.0366C37.8923 21.3585 37.5062 21.5358 37.0585 21.5358H33.9562V26.7589ZM36.8289 19.8822L35.7873 14.2137H33.5344C33.8101 15.4732 33.9562 16.7839 33.9562 18.1295V19.8822H36.8289ZM1.99952 18.9563H4.87444L4.97776 18.9569C4.99722 18.9571 5.01763 18.9574 5.03889 18.9574C5.25184 18.9574 5.54329 18.9367 5.78455 18.68C6.04633 18.4014 6.03854 18.0709 6.03423 17.8933C6.03286 17.8359 6.03149 17.7765 6.03423 17.6983C6.11135 15.4837 6.78494 13.3523 7.9823 11.5345C8.22987 11.1587 8.1397 10.6437 7.78102 10.3843C7.42244 10.125 6.93077 10.2194 6.6833 10.5952C5.37547 12.581 4.61434 14.8937 4.47272 17.3026H1.99952C2.39892 9.19795 8.63568 2.67914 16.3894 2.26265V4.84744C13.904 5.00564 11.5446 5.91104 9.54685 7.47666C9.19785 7.75006 9.12651 8.26829 9.38756 8.63396C9.54254 8.85113 9.7798 8.96556 10.0201 8.96556C10.1846 8.96556 10.3504 8.91198 10.4921 8.80086C12.3159 7.3716 14.4843 6.57049 16.7637 6.48395C16.8387 6.48106 16.8978 6.48244 16.9447 6.48353L16.9447 6.48353L16.9487 6.48362L16.9525 6.48369C17.1244 6.48692 17.4395 6.49284 17.7033 6.21982C17.9726 5.9415 17.97 5.61072 17.9681 5.36909V5.36899L17.9677 2.26265C25.9833 2.69336 32.3779 9.64541 32.3779 18.1293V27.5856V29.7774H17.784C17.0149 29.7774 16.3894 30.4322 16.3894 31.2371V33.996C8.63579 33.5797 2.39903 27.0609 1.99952 18.9563ZM17.9677 34.0174H32.378V31.8193V31.4311H17.9677V34.0174Z" />
<path fill-rule="evenodd" clip-rule="evenodd" d="M24.7822 27.8582H17.2368C12.2853 27.8582 8.25684 23.8683 8.25684 18.9642C8.25684 14.0617 12.2853 10.0732 17.2368 10.0732C22.1867 10.0732 26.2136 14.0618 26.2136 18.9642V26.4358C26.2136 27.2201 25.5715 27.8582 24.7822 27.8582ZM24.6181 18.9642C24.6181 14.9349 21.3068 11.6568 17.2368 11.6568C13.1651 11.6568 9.85242 14.9349 9.85242 18.9642C9.85242 22.9952 13.1651 26.2746 17.2368 26.2746H24.6181V18.9642Z" />
<path fill-rule="evenodd" clip-rule="evenodd" d="M20.1039 21.9298H14.3667C13.4731 21.9298 12.7461 21.2611 12.7461 20.439V17.489C12.7461 16.6688 13.4731 16.0015 14.3667 16.0015H20.1039C20.9975 16.0015 21.7245 16.6688 21.7245 17.489V20.439C21.7245 21.261 20.9975 21.9298 20.1039 21.9298ZM19.9219 17.6577H14.5486V20.2736H19.9219V17.6577Z" />
</svg>
