<svg viewBox="0 0 59 58" xmlns="http://www.w3.org/2000/svg">
    <path fill-rule="evenodd" clip-rule="evenodd" d="M54.64 47.9008C54.64 47.9008 10.4396 47.8833 10.431 47.8836C9.56111 47.8725 9.09132 47.9364 7.93355 48.4371L0.776996 51.529C0.297335 51.7346 -0.000453082 52.1747 5.17465e-07 52.6775C0.000455154 53.1751 0.305963 53.6268 0.77359 53.8262C3.1207 54.8433 7.93321 56.9226 7.93321 56.9226C9.01673 57.391 9.48641 57.4434 10.2562 57.4434L27.5813 57.4589C28.0515 57.4589 28.4328 57.0899 28.4328 56.6346C28.4328 56.1793 28.0515 55.8103 27.5813 55.8103C27.5813 55.8103 11.3781 55.8107 11.308 55.8112V53.5042H48.9299V55.8103H31.8092C31.3389 55.8103 30.9578 56.1793 30.9578 56.6346C30.9578 57.0899 31.3389 57.4589 31.8092 57.4589H54.6401C56.5607 57.4589 58.1233 55.9487 58.1233 54.0925V51.2672C58.1232 49.411 56.5606 47.9008 54.64 47.9008ZM4.9408 51.5355V53.8231L4.12066 53.4686C3.51219 53.2057 2.90374 52.9427 2.29443 52.6788L4.9408 51.5355ZM6.64374 50.7998V54.5594C7.26532 54.8281 9.35165 55.7136 9.60505 55.77V49.5898C9.35165 49.6462 6.64374 50.7998 6.64374 50.7998ZM11.3081 51.8556V49.5485C11.3783 49.5491 11.4505 49.5495 11.5271 49.5495H48.93V51.8556H11.3081ZM54.64 55.8103C55.6217 55.8103 56.4203 55.0398 56.4203 54.0925V51.2671C56.4203 50.32 55.6216 49.5494 54.64 49.5494H50.6329V55.8103H54.64Z" />
    <path fill-rule="evenodd" clip-rule="evenodd" d="M1.50637 43.7783L28.2697 43.7752C28.7538 43.7752 29.1462 43.4008 29.1461 42.9393C29.146 42.4777 28.7535 42.1035 28.2694 42.1036L1.75309 42.1066V7.99991H5.2575V35.9402C5.2575 36.6988 5.90521 37.3158 6.70146 37.3158H43.0484C43.6491 37.3158 44.1713 37.0066 44.379 36.5281C44.586 36.0508 44.4489 35.5178 44.012 35.1021L15.5275 7.99991H47.7673V34.5018C47.7673 35.2826 48.4341 35.9179 49.2539 35.9179H53.1175C54.9112 35.9179 56.3703 37.3054 56.3703 39.0107C56.3703 40.716 54.9112 42.1035 53.1175 42.1035H32.2938C31.8096 42.1035 31.4173 42.4777 31.4173 42.9393C31.4173 43.4008 31.8096 43.775 32.2938 43.775H53.1174C55.8776 43.775 58.1233 41.6378 58.1233 39.0107V7.67596C58.1233 5.04712 55.8776 2.90851 53.1174 2.90851H49.2537C48.434 2.90851 47.7671 3.54237 47.7671 4.32155V6.32844H13.7706L7.57976 0.437914C7.14172 0.0211333 6.58038 -0.107801 6.07795 0.0927883C5.5754 0.293601 5.2533 0.792177 5.2575 1.35717V6.32833H1.50625C0.675756 6.32833 0 6.97345 0 7.76645V42.3403C0 43.133 0.675756 43.7783 1.50637 43.7783ZM49.5203 4.57997H53.1174C54.9111 4.57997 56.3702 5.96872 56.3702 7.67585V35.392C55.4947 34.678 54.358 34.2463 53.1174 34.2463H49.5203V4.57997ZM42.0994 35.6444L7.01059 2.25793V35.6444H10.771V34.4706C10.771 34.009 11.1634 33.6348 11.6475 33.6348C12.1316 33.6348 12.524 34.009 12.524 34.4706V35.6444H16.2875V33.366C16.2875 32.9044 16.6799 32.5302 17.164 32.5302C17.6481 32.5302 18.0405 32.9044 18.0405 33.366V35.6444H21.8008V34.4706C21.8008 34.009 22.1932 33.6348 22.6773 33.6348C23.1614 33.6348 23.5539 34.009 23.5539 34.4706V35.6444H27.3175V33.366C27.3175 32.9044 27.71 32.5302 28.1941 32.5302C28.6781 32.5302 29.0706 32.9044 29.0706 33.366V35.6444H32.8309V34.4706C32.8309 34.009 33.2232 33.6348 33.7074 33.6348C34.1916 33.6348 34.5839 34.009 34.5839 34.4706V35.6444H42.0994Z" />
    <path fill-rule="evenodd" clip-rule="evenodd" d="M23.6575 30.0975H14.8696C14.2435 30.0975 13.839 29.6972 13.8389 29.0775V20.3918C13.8389 20.0641 13.8389 19.4542 14.41 19.2208C14.972 18.9912 15.3768 19.3941 15.6723 19.6884L24.372 28.284C24.668 28.5764 25.0733 28.9768 24.8411 29.5325C24.6051 30.0975 23.9886 30.0975 23.6575 30.0975ZM22.3718 28.5266L15.4253 21.6633V28.5266H22.3718Z" />
</svg>
