<svg viewBox="0 0 54 47" xmlns="http://www.w3.org/2000/svg">
<path fill-rule="evenodd" clip-rule="evenodd" d="M50.6688 13.1749H51.503C52.8084 13.1749 53.8704 14.3204 53.8704 15.7286V31.5197C53.8704 33.8666 52.1005 35.7759 49.9248 35.7759H47.4672V44.1231C47.4672 45.4416 46.4727 46.5144 45.2503 46.5144C44.0925 46.5144 43.1211 45.5385 43.0391 44.2926L42.4778 35.7757H19.5709C19.1351 35.7757 18.7818 35.3946 18.7818 34.9245C18.7818 34.4544 19.1351 34.0733 19.5709 34.0733H49.9247C51.2301 34.0733 52.2921 32.9278 52.2921 31.5196V15.7285C52.2921 15.259 51.9381 14.8772 51.5029 14.8772H48.2563C47.8756 14.8772 47.557 15.1695 47.4833 15.5571C47.4728 15.6125 47.4672 15.6698 47.4672 15.7285V19.8045H48.7381C49.7985 19.8045 50.6613 20.7352 50.6613 21.8791V26.7941C50.6613 27.9381 49.7985 28.8687 48.7381 28.8687H5.13231C4.07184 28.8687 3.20908 27.9382 3.20908 26.7942V21.8792C3.20908 20.7353 4.07184 19.8046 5.13231 19.8046H6.40311V15.7286C6.40311 15.6699 6.39753 15.6126 6.38701 15.5572C6.31336 15.1697 5.99466 14.8774 5.61399 14.8774H2.36735C1.93218 14.8774 1.57823 15.2592 1.57823 15.7286V31.5196C1.57823 32.9278 2.64018 34.0733 3.94559 34.0733H15.8885C16.3243 34.0733 16.6776 34.4544 16.6776 34.9245C16.6776 35.3946 16.3243 35.7757 15.8885 35.7757H11.3924L10.8311 44.2926C10.749 45.5385 9.77769 46.5144 8.61989 46.5144C7.3976 46.5144 6.40311 45.4418 6.40311 44.1231V35.7759H3.94559C1.76994 35.7759 0 33.8666 0 31.5197V15.7286C0 14.3204 1.06194 13.1749 2.36735 13.1749H3.20161V3.91566C3.20161 1.7566 4.83003 0 6.83154 0H24.0944C25.244 0 26.2696 0.580085 26.9352 1.48239C27.6008 0.580085 28.6264 0 29.776 0H47.0387C48.8109 0 50.3153 1.36537 50.6159 3.24682C50.6899 3.71012 50.4017 4.15037 49.9723 4.23028C49.5427 4.30995 49.1346 3.99931 49.0606 3.53601C48.8909 2.47345 48.0406 1.70246 47.0388 1.70246H29.7759C28.6446 1.70246 27.7242 2.69534 27.7242 3.91566V19.838C27.7347 19.8359 27.7433 19.834 27.7515 19.8321L27.7598 19.8303C27.8945 19.8005 28.0358 19.8006 35.0522 19.8027H35.0524H35.0526H35.0528C37.6267 19.8035 41.1257 19.8046 45.8889 19.8046V15.7286C45.8889 14.3204 46.9509 13.1749 48.2563 13.1749H49.0905V7.3611C49.0905 6.891 49.4439 6.50987 49.8797 6.50987C50.3155 6.50987 50.6688 6.891 50.6688 7.3611V13.1749ZM9.46254 44.1698L9.93726 35.7367H8.36822V44.1208C8.36822 44.5023 8.61392 44.8127 8.91605 44.8127C9.2022 44.8127 9.44223 44.5303 9.46254 44.1698ZM49.1633 26.855C49.1633 27.0607 49.0079 27.228 48.8169 27.228H27.7197V24.9691V21.9284C27.7197 21.7227 27.8751 21.5555 28.0661 21.5555H48.8169C49.0079 21.5555 49.1633 21.7228 49.1633 21.9284V26.855ZM4.70712 13.1846H5.54439C6.85452 13.1846 7.9203 14.3311 7.9203 15.7406V19.8203C12.7177 19.8203 16.2394 19.8193 18.8275 19.8185C25.8807 19.8165 26.0003 19.8164 26.1127 19.8448L26.1186 19.8463C26.1275 19.8486 26.1371 19.8511 26.1507 19.8537V3.91695C26.1507 2.69552 25.2269 1.70175 24.0916 1.70175H6.76624C5.63087 1.70175 4.70712 2.69552 4.70712 3.91695V13.1846ZM4.70712 26.855V21.9285C4.70712 21.7228 4.86251 21.5555 5.05349 21.5555H25.8043C25.9953 21.5555 26.1507 21.7228 26.1507 21.9285V24.9692V27.228H5.05349C4.86251 27.228 4.70712 27.0607 4.70712 26.855ZM44.9543 44.8127C45.2564 44.8127 45.5022 44.5024 45.5022 44.1208V35.7367H43.9331L44.4078 44.1698C44.4281 44.5303 44.6681 44.8127 44.9543 44.8127Z" />
</svg>
